/* XPM */
static char *_f25f154076b414b97b12557890b9570xttiU8e9NBu7NUZ9[] = {
/* columns rows colors chars-per-pixel */
"20 20 85 1 ",
"  c #2F1B1F",
". c #301B1F",
"X c #331B1F",
"o c #351B1F",
"O c #371B1F",
"+ c #3A1B1E",
"@ c #3B1B1E",
"# c #3D1B1E",
"$ c #221A21",
"% c #231A21",
"& c #241A21",
"* c #2B1A20",
"= c #2D1A20",
"- c #411B1D",
"; c #421B1D",
": c #401B1E",
"> c #471B1D",
", c #441B1E",
"< c #461C1D",
"1 c #4A1B1D",
"2 c #491C1D",
"3 c #4E1C1C",
"4 c #4F1C1C",
"5 c #4E1C1D",
"6 c #521C1C",
"7 c #531C1C",
"8 c #541C1C",
"9 c #561D1C",
"0 c #571D1C",
"q c #5B1D1B",
"w c #5C1D1B",
"e c #5A1D1C",
"r c #5C1E1C",
"t c #621E1B",
"y c #631E1B",
"u c #641E1B",
"i c #661F1B",
"p c #6B1F1B",
"a c #67201C",
"s c #6E201B",
"d c #6F201B",
"f c #70201A",
"g c #73231B",
"h c #75211A",
"j c #74221B",
"k c #77221A",
"l c #73241B",
"z c #70241C",
"x c #79221A",
"c c #7B241B",
"v c #7D251B",
"b c #7A261C",
"n c #7E271C",
"m c #7C3A1E",
"M c #7A3E1E",
"N c #7B471E",
"B c #7F491F",
"V c #802A1D",
"C c #812B1D",
"Z c #842A1C",
"A c #822E1E",
"S c #842D1E",
"D c #892E1E",
"F c #8E311F",
"G c #834A20",
"H c #864A21",
"J c #814E20",
"K c #884C21",
"L c #805520",
"P c #885A22",
"I c #885C23",
"U c #8D5924",
"Y c #846324",
"T c #8D6825",
"R c #8A6D25",
"E c #906026",
"W c #BAC239",
"Q c #BDC63B",
"! c #BFCA3C",
"~ c #BFCB3C",
"^ c #C0CB3C",
"/ c #C1CD3C",
"( c #C2CD3C",
") c #C4CF3D",
"_ c #C4D03D",
/* pixels */
"_/__//_///^)/))///_/",
"//~~Q!/!/_Q^^^^)((/W",
"RTIPGBGMUULGNLmYGEKK",
"AjssfjyglgupjpxnlglZ",
"Szprgs<ld6#af1tplybD",
"Fcr--< 5<.&#-O9p3qpZ",
"jps2%=%.*%%&*%*#+9bA",
"CbqO%%%%%%%%%&&&#sak",
"Adt<$$$$%%$$$$$$.qcn",
"xad<$$$$%%$$$$$$.1dF",
"zSe.$$$$$$$$$$$$.rlc",
"An<=$$$$$$$$$$$$ 6ps",
"Cpf,%%%$$$%%$$$$.#pF",
"fuj4%%$$$$$%$$$$.8nS",
"ppq#%%%%$$%%%%$$.rup",
"gq#=$$%%%%%*%%$$.@qx",
"wq#..@O @#@#@@O @@>q",
"fp;##73#13>11>###@;p",
"pu,w37373-37333-71>r",
"rww8r8qq91q8qqqq88q9"
};
